<svg width="22" height="0" viewBox="0 0 22 22" fill="none" xmlns="http://www.w3.org/2000/svg">
<g clip-path="url(#clip0_2_3)">
<path d="M1.38606 5.62731C1.14247 5.81677 1 6.10808 1 6.41667V16.5C1 17.2514 1.29851 17.9721 1.82986 18.5035C2.36122 19.0348 3.08189 19.3333 3.83333 19.3333H16.6667C17.4181 19.3333 18.1388 19.0348 18.6701 18.5035C19.2015 17.9721 19.5 17.2514 19.5 16.5V6.41667C19.5 6.10808 19.3575 5.81677 19.1139 5.62731L10.8639 -0.789352C10.5028 -1.07022 9.99717 -1.07022 9.63606 -0.789352L1.38606 5.62731Z" stroke="#040404" stroke-width="2" stroke-linecap="round" stroke-linejoin="round"/>
<mask id="path-2-outside-1_2_3" maskUnits="userSpaceOnUse" x="5.5" y="7.16667" width="10" height="14" fill="black">
<rect fill="white" x="5.5" y="7.16667" width="10" height="14"/>
<path d="M7.5 18.3333V9.16667H13V18.3333"/>
</mask>
<path d="M5.5 18.3333C5.5 19.4379 6.39543 20.3333 7.5 20.3333C8.60457 20.3333 9.5 19.4379 9.5 18.3333H5.5ZM7.5 9.16667V7.16667C6.39543 7.16667 5.5 8.0621 5.5 9.16667H7.5ZM13 9.16667H15C15 8.0621 14.1046 7.16667 13 7.16667V9.16667ZM11 18.3333C11 19.4379 11.8954 20.3333 13 20.3333C14.1046 20.3333 15 19.4379 15 18.3333H11ZM9.5 18.3333V9.16667H5.5V18.3333H9.5ZM7.5 11.1667H13V7.16667H7.5V11.1667ZM11 9.16667V18.3333H15V9.16667H11Z" fill="#040404" mask="url(#path-2-outside-1_2_3)"/>
</g>
<defs>
<clipPath id="clip0_2_3">
<rect width="22" height="20" fill="white"/>
</clipPath>
</defs>
</svg>
